<?xml version="1.0" encoding="UTF-8"?><svg id="Calque_2" xmlns="http://www.w3.org/2000/svg" viewBox="0 0 89.01 126.67"><defs><style>.cls-1,.cls-2{fill:none;stroke:#f9b233;stroke-miterlimit:10;}.cls-3{fill:#f9b233;}.cls-2{stroke-width:2px;}.cls-4{fill:#1d71b8;}</style></defs><g id="Calque_1-2"><path class="cls-3" d="M37.2,53.04c-4.01-1.34-7.17-3.16-9.49-5.48s-3.48-5.13-3.48-8.44,1.16-6.02,3.48-8.35c2.32-2.33,5.13-3.5,8.44-3.5s6.09,1.16,8.44,3.48c1.29,1.24,2.18,2.64,2.67,4.18l-2.85,1.12c-.42-1.15-1.11-2.2-2.07-3.16-1.71-1.69-3.77-2.53-6.19-2.53s-4.48,.85-6.19,2.55c-1.71,1.7-2.57,3.77-2.57,6.21s.86,4.48,2.57,6.19c1.59,1.57,3.8,3.01,6.61,4.32,4.5,1.45,8.29,3.71,11.36,6.79,3.26,3.23,4.89,7.15,4.89,11.74s-1.63,8.56-4.89,11.81c-3.26,3.26-7.18,4.89-11.78,4.89s-8.52-1.64-11.78-4.92c-2.6-2.6-4.16-5.62-4.68-9.07l2.99-1.09c.33,3.05,1.63,5.71,3.9,7.98,2.65,2.65,5.84,3.97,9.56,3.97s6.95-1.32,9.6-3.97c2.65-2.65,3.97-5.85,3.97-9.6s-1.32-6.91-3.97-9.56c-2.32-2.32-5.17-4.17-8.54-5.55Z"/><line class="cls-2" x1="20.12" y1="19.63" x2="10.51" y2="10.02"/><line class="cls-2" x1="35.29" y1="13.6" x2="35.29"/><line class="cls-2" x1="13.6" y1="33" y2="33"/><line class="cls-1" x1="46.85" y1="34.63" x2="20.1" y2="71.16"/><path class="cls-3" d="M28.01,35.74s-5.75,9.19,8.2,13.72l10.18-14.52s-10.24-15.35-18.38,.8Z"/><path class="cls-3" d="M22.69,69.77l-1.29,.47,1.29-1.8s-.04,1.09,0,1.33Z"/><path class="cls-3" d="M23.09,67.83s-.89,.42-.48,1.35"/><path class="cls-4" d="M74.94,91.94h-19.48l-7.84,21.55h-3.38l20.95-57.55,20.92,57.55h-3.34l-7.84-21.55Zm-1.16-3.16l-8.58-23.59-8.58,23.59h17.16Z"/></g></svg>