<?xml version="1.0" encoding="utf-8"?>
<!-- Generator: Adobe Illustrator 27.0.0, SVG Export Plug-In . SVG Version: 6.00 Build 0)  -->
<svg version="1.1" id="Calque_2_00000117649690100379476920000013681136571011752073_"
	 xmlns="http://www.w3.org/2000/svg" xmlns:xlink="http://www.w3.org/1999/xlink" x="0px" y="0px" viewBox="0 0 257.4 93.8"
	 style="enable-background:new 0 0 257.4 93.8;" xml:space="preserve">
<style type="text/css">
	.st0{fill:#F9B233;}
	.st1{fill:#1D71B8;}
	.st2{fill:none;stroke:#FFFFFF;stroke-width:2;stroke-miterlimit:10;}
	.st3{fill:none;stroke:#F9B233;stroke-width:2;stroke-miterlimit:10;}
	.st4{fill:none;stroke:#F9B233;stroke-miterlimit:10;}
</style>
<g id="Calque_1-2">
	<g>
		<path class="st0" d="M37.2,53c-4-1.3-7.2-3.2-9.5-5.5s-3.5-5.1-3.5-8.4s1.2-6,3.5-8.4s5.1-3.5,8.4-3.5s6.1,1.2,8.4,3.5
			c1.3,1.2,2.2,2.6,2.7,4.2L44.4,36c-0.4-1.2-1.1-2.2-2.1-3.2c-1.7-1.7-3.8-2.5-6.2-2.5s-4.5,0.9-6.2,2.6s-2.6,3.8-2.6,6.2
			s0.9,4.5,2.6,6.2c1.6,1.6,3.8,3,6.6,4.3c4.5,1.5,8.3,3.7,11.4,6.8c3.3,3.2,4.9,7.2,4.9,11.7s-1.6,8.6-4.9,11.8s-7.2,4.9-11.8,4.9
			s-8.5-1.6-11.8-4.9c-2.6-2.6-4.2-5.6-4.7-9.1l3-1.1c0.3,3.1,1.6,5.7,3.9,8c2.6,2.7,5.8,4,9.6,4s7-1.3,9.6-4s4-5.8,4-9.6
			s-1.3-6.9-4-9.6C43.4,56.3,40.6,54.4,37.2,53L37.2,53z"/>
		<path class="st0" d="M93.4,27.9h3.2v40.4c-0.6,4.3-2.4,7.9-5.4,10.9c-3.6,3.6-7.9,5.4-13,5.4s-9.4-1.8-13-5.4s-5.4-7.9-5.4-13
			V27.9H63v38.4c0,4.2,1.5,7.7,4.4,10.7c3,3,6.5,4.4,10.7,4.4S86,80,89,77c2.9-3,4.4-6.5,4.4-10.7C93.4,66.3,93.4,27.9,93.4,27.9z"
			/>
		<path class="st0" d="M110.3,28h0.2c9.3,0,16.4,2.5,21.5,7.7c5.6,5.7,8.4,12.5,8.4,20.4s-2.8,14.8-8.4,20.4
			c-5.1,5.1-12.3,7.7-21.5,7.7h-0.2v0.1h-3.2V27.9L110.3,28L110.3,28z M110.3,31.2v49.7h0.2c8.3,0,14.8-2.2,19.2-6.8
			c5-5,7.5-11,7.5-18.1s-2.5-13.1-7.5-18.1c-4.5-4.5-10.9-6.7-19.2-6.7C110.6,31.2,110.3,31.2,110.3,31.2z"/>
	</g>
	<g>
		<path class="st1" d="M191.1,62.6h-19.5l-7.8,21.5h-3.4l20.9-57.5l20.9,57.5h-3.3L191.1,62.6L191.1,62.6z M189.9,59.5l-8.6-23.6
			l-8.6,23.6H189.9z"/>
		<path class="st1" d="M213.2,27.9v56.2H210V27.9H213.2z"/>
		<path class="st1" d="M238.1,64.6c-0.3,0-0.6,0-0.9,0h-9.6v19.5h-3.2V27.9h14.8c4.3,0.6,7.9,2.4,10.9,5.4c3.6,3.6,5.4,7.9,5.4,13
			s-1.8,9.4-5.4,13c-2.5,2.5-5.3,4.1-8.5,4.9l13,20h-3.9L238.1,64.6L238.1,64.6z M227.6,31.1v30.3h9.6c4.2,0,7.7-1.5,10.7-4.5
			c3-3,4.4-6.5,4.4-10.7s-1.5-7.8-4.4-10.7s-6.5-4.4-10.7-4.4H227.6z"/>
	</g>
	<path class="st2" d="M20,92.3h236.2c0.1,0,0.3,0.1,0.3,0.3v0c0,0.1-0.1,0.3-0.3,0.3H20c-0.1,0-0.3-0.1-0.3-0.3v0
		C19.7,92.4,19.8,92.3,20,92.3z"/>
	<line class="st3" x1="20.1" y1="19.6" x2="10.5" y2="10"/>
	<line class="st3" x1="35.3" y1="13.6" x2="35.3" y2="0"/>
	<line class="st3" x1="13.6" y1="33" x2="0" y2="33"/>
	<line class="st4" x1="46.8" y1="34.6" x2="20.1" y2="71.2"/>
	<path class="st0" d="M28,35.7c0,0-5.8,9.2,8.2,13.7l10.2-14.5C46.4,34.9,36.2,19.6,28,35.7z"/>
	<path class="st0" d="M22.7,69.8l-1.3,0.5l1.3-1.8C22.7,68.4,22.7,69.5,22.7,69.8z"/>
	<path class="st0" d="M23.1,67.8c0,0-0.9,0.4-0.5,1.3"/>
</g>
</svg>
