<?xml version="1.0" encoding="UTF-8"?><svg id="Calque_2" xmlns="http://www.w3.org/2000/svg" viewBox="0 0 295.01 120.4"><defs><style>.cls-1,.cls-2{stroke:#f9b233;}.cls-1,.cls-2,.cls-3{fill:none;stroke-miterlimit:10;}.cls-4{fill:#f9b233;}.cls-2,.cls-3{stroke-width:2px;}.cls-3{stroke:#1d1d1b;}.cls-5{fill:#1d71b8;}.cls-6{fill:#1d1d1b;}</style></defs><g id="Calque_1-2"><g><path class="cls-4" d="M37.21,53.04c-4.01-1.34-7.17-3.16-9.49-5.48s-3.48-5.13-3.48-8.44,1.16-6.02,3.48-8.35c2.32-2.33,5.13-3.5,8.44-3.5s6.09,1.16,8.44,3.48c1.29,1.24,2.18,2.64,2.67,4.18l-2.85,1.12c-.42-1.15-1.11-2.2-2.07-3.16-1.71-1.69-3.77-2.53-6.19-2.53s-4.48,.85-6.19,2.55c-1.71,1.7-2.57,3.77-2.57,6.21s.86,4.48,2.57,6.19c1.59,1.57,3.8,3.01,6.61,4.32,4.5,1.45,8.28,3.71,11.36,6.79,3.26,3.23,4.89,7.15,4.89,11.74s-1.63,8.56-4.89,11.81-7.18,4.89-11.78,4.89-8.52-1.64-11.78-4.92c-2.6-2.6-4.16-5.62-4.68-9.07l2.99-1.09c.33,3.05,1.63,5.71,3.9,7.98,2.65,2.65,5.84,3.97,9.56,3.97s6.95-1.32,9.6-3.97,3.97-5.85,3.97-9.6-1.32-6.91-3.97-9.56c-2.32-2.32-5.17-4.17-8.54-5.55Z"/><path class="cls-4" d="M93.39,27.93h3.2v40.43c-.59,4.29-2.38,7.93-5.38,10.93-3.59,3.59-7.91,5.38-12.97,5.38s-9.42-1.79-13.01-5.38-5.38-7.91-5.38-12.97V27.93h3.2v38.39c0,4.17,1.48,7.74,4.45,10.71,2.96,2.97,6.54,4.45,10.74,4.45s7.77-1.48,10.72-4.45c2.95-2.96,4.43-6.53,4.43-10.71V27.93Z"/><path class="cls-4" d="M110.3,28h.25c9.26,0,16.43,2.55,21.52,7.66,5.62,5.65,8.44,12.45,8.44,20.39s-2.81,14.77-8.44,20.39c-5.09,5.11-12.26,7.66-21.52,7.66h-.25v.07h-3.16V27.93h3.16v.07Zm0,3.23v49.68h.25c8.34,0,14.75-2.25,19.23-6.75,4.99-4.99,7.49-11.03,7.49-18.11s-2.5-13.09-7.49-18.11c-4.48-4.48-10.89-6.71-19.23-6.71h-.25Z"/></g><g><path class="cls-5" d="M191.09,62.63h-19.48l-7.84,21.55h-3.38l20.95-57.55,20.92,57.55h-3.34l-7.84-21.55Zm-1.16-3.16l-8.58-23.59-8.58,23.59h17.16Z"/><path class="cls-5" d="M213.17,27.93v56.25h-3.16V27.93h3.16Z"/><path class="cls-5" d="M238.1,64.64c-.3,.02-.62,.04-.95,.04h-9.56v19.51h-3.16V27.93h14.77c4.29,.59,7.93,2.38,10.93,5.38,3.59,3.59,5.38,7.91,5.38,12.97s-1.79,9.42-5.38,13.01c-2.48,2.48-5.33,4.11-8.54,4.89l12.97,20h-3.9l-12.55-19.55Zm-10.51-33.5v30.34h9.56c4.17,0,7.74-1.48,10.71-4.45,2.96-2.96,4.45-6.54,4.45-10.74s-1.48-7.77-4.45-10.72-6.53-4.43-10.71-4.43h-9.56Z"/></g><path class="cls-6" d="M151.92,32.02c-.75-.16-1.4-.54-1.95-1.12-.88-.85-1.32-1.89-1.32-3.12s.43-2.23,1.29-3.08c.86-.85,1.9-1.27,3.1-1.27s2.24,.42,3.1,1.27c.86,.85,1.29,1.87,1.29,3.08,0,.68-.11,1.32-.34,1.9l-4.79,9.67h-3.17l2.78-7.32Z"/><rect class="cls-3" x="19.7" y="92.32" width="236.68" height=".51" rx=".26" ry=".26"/><line class="cls-2" x1="20.12" y1="19.63" x2="10.51" y2="10.02"/><line class="cls-2" x1="35.29" y1="13.6" x2="35.29"/><line class="cls-2" x1="13.6" y1="33" y2="33"/><line class="cls-1" x1="46.85" y1="34.63" x2="20.1" y2="71.16"/><path class="cls-4" d="M28.01,35.74s-5.75,9.19,8.2,13.72l10.18-14.52s-10.24-15.35-18.38,.8Z"/><path class="cls-4" d="M22.69,69.77l-1.29,.47,1.29-1.8s-.04,1.09,0,1.33Z"/><path class="cls-4" d="M23.09,67.83s-.89,.42-.48,1.35"/></g></svg>